<svg id="Layer_1" data-name="Layer 1" xmlns="http://www.w3.org/2000/svg" xmlns:xlink="http://www.w3.org/1999/xlink" viewBox="0 0 797.63 876.94">
  <defs>
    <style>
    .cls{fill:url(#linear-gradient);}
    .cls{fill:url(#linear-gradient);}.cls{fill:url(#linear-gradient-2);}.cls{fill:url(#linear-gradient-3);}.cls{fill:url(#linear-gradient-4);}.cls{fill:url(#linear-gradient-5);}.cls{fill:url(#linear-gradient-6);}.cls{fill:url(#linear-gradient-7);}.cls{fill:url(#linear-gradient-8);}.cls{fill:url(#linear-gradient-9);}.cls0{fill:url(#linear-gradient-10);}.cls1{fill:url(#linear-gradient-11);}.cls2{fill:url(#linear-gradient-12);}.cls3{fill:url(#linear-gradient-13);}.cls4{fill:url(#linear-gradient-14);}.cls5{fill:url(#linear-gradient-15);}.cls6{fill:url(#linear-gradient-16);}.cls7{fill:url(#linear-gradient-17);}.cls8{fill:url(#linear-gradient-18);}.cls9{fill:url(#linear-gradient-19);}.cls0{fill:url(#linear-gradient-20);}.cls1{fill:url(#linear-gradient-21);}.cls2{fill:url(#linear-gradient-22);}.cls3{fill:url(#linear-gradient-23);}.cls4{fill:url(#linear-gradient-24);}.cls5{fill:url(#linear-gradient-25);}.cls6{fill:url(#linear-gradient-26);}.cls7{fill:url(#linear-gradient-27);}.cls8{fill:url(#linear-gradient-28);}.cls9{fill:url(#linear-gradient-29);}.cls0{fill:url(#linear-gradient-30);}.cls1{fill:url(#linear-gradient-31);}.cls2{fill:url(#linear-gradient-32);}.cls3{fill:url(#linear-gradient-33);}.cls4{fill:url(#linear-gradient-34);}.cls5{fill:url(#linear-gradient-35);}.cls6{fill:url(#linear-gradient-36);}.cls7{fill:url(#linear-gradient-37);}.cls8{fill:url(#linear-gradient-38);}.cls9{fill:url(#linear-gradient-39);}
    </style>
    <linearGradient id="linear-gradient" x1="-3.53" y1="51.16" x2="-3.53" y2="-13.18" gradientTransform="translate(14.68 12.55) rotate(60)" gradientUnits="userSpaceOnUse">
      <stop offset="0" stop-color="#ff66eb"/><stop offset="1" stop-color="#ff66eb" stop-opacity="0"/>
    </linearGradient>
    <linearGradient id="linear-gradient-2" x1="188.71" y1="108.23" x2="188.71" y2="41.78" gradientTransform="translate(95.5 -105.4) rotate(41)" xlink:href="#linear-gradient"/>
    <linearGradient id="linear-gradient-3" x1="449.69" y1="82.28" x2="449.69" y2="21.9" gradientTransform="translate(344.84 -388.29) rotate(70)" xlink:href="#linear-gradient"/>
    <linearGradient id="linear-gradient-4" x1="282.92" y1="177.2" x2="282.92" y2="112.85" gradientTransform="translate(267.05 -172.5) rotate(60)" xlink:href="#linear-gradient"/>
    <linearGradient id="linear-gradient-5" x1="321.11" y1="55.13" x2="321.11" y2="-45.15" gradientTransform="translate(37.26 -145.24) rotate(27)" xlink:href="#linear-gradient"/>
    <linearGradient id="linear-gradient-6" x1="125.05" y1="39.36" x2="125.05" y2="-100.68" gradientTransform="translate(-0.29 -60.11) rotate(27)" xlink:href="#linear-gradient"/>
    <linearGradient id="linear-gradient-7" x1="627.92" y1="108.29" x2="627.92" y2="41.72" gradientTransform="translate(219.84 -408.09) rotate(43)" xlink:href="#linear-gradient"/>
    <linearGradient id="linear-gradient-8" x1="706.85" y1="34.07" x2="706.85" y2="-31.73" gradientTransform="translate(135.68 -415.25) rotate(36)" xlink:href="#linear-gradient"/>
    <linearGradient id="linear-gradient-9" x1="2.16" y1="150.09" x2="2.16" y2="111.9" gradientTransform="translate(114.53 63.62) rotate(60)" xlink:href="#linear-gradient"/>
    <linearGradient id="linear-gradient-10" x1="189.95" y1="204.81" x2="189.95" y2="166.62" gradientTransform="translate(168.43 -79.06) rotate(41)" xlink:href="#linear-gradient"/>
    <linearGradient id="linear-gradient-11" x1="444.88" y1="184.97" x2="444.88" y2="141.69" gradientTransform="translate(446.2 -310.58) rotate(70)" xlink:href="#linear-gradient"/>
    <linearGradient id="linear-gradient-12" x1="281.97" y1="279.57" x2="281.97" y2="228.65" gradientTransform="translate(361.05 -117.14) rotate(60)" xlink:href="#linear-gradient"/>
    <linearGradient id="linear-gradient-13" x1="618.98" y1="204.81" x2="618.98" y2="166.62" gradientTransform="translate(292.94 -372.25) rotate(43)" xlink:href="#linear-gradient"/>
    <linearGradient id="linear-gradient-14" x1="86.98" y1="199.55" x2="86.98" y2="161.36" gradientTransform="translate(146.44 -10.84) rotate(43)" xlink:href="#linear-gradient"/>
    <linearGradient id="linear-gradient-15" x1="467.48" y1="418.69" x2="467.48" y2="380.49" gradientTransform="translate(398.11 -211.48) rotate(43)" xlink:href="#linear-gradient"/>
    <linearGradient id="linear-gradient-16" x1="696.08" y1="143.5" x2="696.08" y2="83.67" gradientTransform="translate(199.7 -387.45) rotate(36)" xlink:href="#linear-gradient"/>
    <linearGradient id="linear-gradient-17" x1="397.74" y1="285.13" x2="397.74" y2="238.41" gradientTransform="translate(285.38 -200.94) rotate(43)" xlink:href="#linear-gradient"/>
    <linearGradient id="linear-gradient-18" x1="535.89" y1="277.59" x2="535.89" y2="231.42" gradientTransform="translate(251.94 -266.38) rotate(36)" xlink:href="#linear-gradient"/>
    <linearGradient id="linear-gradient-19" x1="549.49" y1="113.53" x2="549.49" y2="86.72" gradientTransform="translate(215.9 -347.85) rotate(43)" xlink:href="#linear-gradient"/>
    <linearGradient id="linear-gradient-20" x1="665.18" y1="604.94" x2="665.18" y2="578.13" gradientTransform="translate(582.12 -294.74) rotate(43)" xlink:href="#linear-gradient"/>
    <linearGradient id="linear-gradient-21" x1="563.34" y1="347.77" x2="563.34" y2="320.97" gradientTransform="translate(379.38 -294.37) rotate(43)" xlink:href="#linear-gradient"/>
    <linearGradient id="linear-gradient-22" x1="295.99" y1="426.71" x2="295.99" y2="399.9" gradientTransform="translate(361.39 -90.83) rotate(43)" xlink:href="#linear-gradient"/>
    <linearGradient id="linear-gradient-23" x1="101.21" y1="361.78" x2="101.21" y2="334.97" gradientTransform="translate(264.78 24.57) rotate(43)" xlink:href="#linear-gradient"/>
    <linearGradient id="linear-gradient-24" x1="87.36" y1="87.93" x2="87.36" y2="61.13" gradientTransform="translate(74.3 -39.55) rotate(43)" xlink:href="#linear-gradient"/>
    <linearGradient id="linear-gradient-25" x1="740.94" y1="292.02" x2="740.94" y2="250.02" gradientTransform="translate(300.81 -383.75) rotate(36)" xlink:href="#linear-gradient"/>
    <linearGradient id="linear-gradient-26" x1="261.97" y1="496.96" x2="261.97" y2="466.96" gradientTransform="translate(380.45 -53.65) rotate(41)" xlink:href="#linear-gradient"/>
    <linearGradient id="linear-gradient-27" x1="90.26" y1="261.68" x2="90.26" y2="221.68" gradientTransform="translate(254.43 42.68) rotate(60)" xlink:href="#linear-gradient"/>
    <linearGradient id="linear-gradient-28" x1="598.98" y1="496.96" x2="598.98" y2="466.96" gradientTransform="translate(489.61 -279.03) rotate(43)" xlink:href="#linear-gradient"/>
    <linearGradient id="linear-gradient-29" x1="89.98" y1="550.96" x2="89.98" y2="520.96" gradientTransform="translate(389.7 82.62) rotate(43)" xlink:href="#linear-gradient"/>
    <linearGradient id="linear-gradient-30" x1="479.98" y1="550.96" x2="479.98" y2="520.96" gradientTransform="translate(494.47 -183.36) rotate(43)" xlink:href="#linear-gradient"/>
    <linearGradient id="linear-gradient-31" x1="654.2" y1="353.05" x2="654.2" y2="316.35" gradientTransform="translate(404.01 -356.25) rotate(43)" xlink:href="#linear-gradient"/>
    <linearGradient id="linear-gradient-32" x1="379.71" y1="482.13" x2="379.71" y2="445.86" gradientTransform="translate(345.25 -134.57) rotate(36)" xlink:href="#linear-gradient"/>
    <linearGradient id="linear-gradient-33" x1="724.27" y1="685.26" x2="724.27" y2="664.2" gradientTransform="translate(654.74 -312.69) rotate(43)" xlink:href="#linear-gradient"/>
    <linearGradient id="linear-gradient-34" x1="619.27" y1="746.26" x2="619.27" y2="725.2" gradientTransform="translate(668.13 -224.69) rotate(43)" xlink:href="#linear-gradient"/>
    <linearGradient id="linear-gradient-35" x1="555.27" y1="609.26" x2="555.27" y2="588.2" gradientTransform="translate(557.5 -217.85) rotate(43)" xlink:href="#linear-gradient"/>
    <linearGradient id="linear-gradient-36" x1="375.27" y1="622.26" x2="375.27" y2="601.2" gradientTransform="translate(518.01 -91.59) rotate(43)" xlink:href="#linear-gradient"/>
    <linearGradient id="linear-gradient-37" x1="192.27" y1="620.26" x2="192.27" y2="599.2" gradientTransform="translate(467.49 32.67) rotate(43)" xlink:href="#linear-gradient"/>
    <linearGradient id="linear-gradient-38" x1="160.27" y1="776.26" x2="160.27" y2="755.2" gradientTransform="translate(565.28 96.41) rotate(43)" xlink:href="#linear-gradient"/>
    <linearGradient id="linear-gradient-39" x1="694.78" y1="565.46" x2="694.78" y2="532.48" gradientTransform="translate(455.37 -303.54) rotate(36)" xlink:href="#linear-gradient"/>
  </defs>

  <title>pattern-pink-squares</title>

  <rect class="cls" x="-27.08" y="-4.56" width="47.1" height="47.1" transform="translate(17.49 107.12) rotate(-60)"/>
  <rect class="cls" x="165.16" y="51.46" width="47.1" height="47.1" transform="translate(32.78 242.88) rotate(-41)"/>
  <rect class="cls" x="426.14" y="28.54" width="47.1" height="47.1" transform="translate(282.64 557.52) rotate(-70)"/>
  <rect class="cls" x="259.36" y="121.47" width="47.1" height="47.1" transform="translate(51.56 418.2) rotate(-60)"/>
  <rect class="cls" x="283.83" y="-32.29" width="74.56" height="74.56" transform="translate(68.43 247) rotate(-27)"/>
  <rect class="cls" x="72.99" y="-82.72" width="104.12" height="104.12" transform="translate(63.25 154.11) rotate(-27)"/>
  <rect class="cls" x="604.37" y="51.46" width="47.1" height="47.1" transform="translate(153.23 549.07) rotate(-43)"/>
  <rect class="cls" x="683.3" y="-22.38" width="47.1" height="47.1" transform="translate(170.01 516.38) rotate(-36)"/>
  <rect class="cls" x="-11.82" y="117.02" width="27.96" height="27.96" transform="translate(-76.66 168.05) rotate(-60)"/>
  <rect class="cls" x="176.41" y="172.18" width="27.07" height="27.07" transform="translate(-39.55 270.85) rotate(-41)"/>
  <rect class="cls" x="427.99" y="146.44" width="33.77" height="33.77" transform="translate(174.94 626.19) rotate(-70)"/>
  <rect class="cls" x="263.33" y="235.47" width="37.28" height="37.28" transform="translate(-43.38 471.93) rotate(-60)"/>
  <rect class="cls" x="605.47" y="172.2" width="27.02" height="27.02" transform="translate(75.33 572.71) rotate(-43)"/>
  <rect class="cls" x="73.47" y="166.95" width="27.02" height="27.02" transform="translate(-64 208.48) rotate(-43)"/>
  <rect class="cls" x="453.97" y="386.08" width="27.02" height="27.02" transform="translate(-111.23 526.85) rotate(-43)"/>
  <rect class="cls" x="674.66" y="92.17" width="42.84" height="42.84" transform="matrix(0.81, -0.59, 0.59, 0.81, 101.88, 531.52)"/>
  <rect class="cls" x="381.21" y="245.24" width="33.06" height="33.06" transform="translate(-35.97 442.26) rotate(-43)"/>
  <rect class="cls" x="519.36" y="237.98" width="33.06" height="33.06" transform="translate(-11.55 464.27) rotate(-36)"/>
  <rect class="cls" x="540" y="90.64" width="18.97" height="18.97" transform="translate(115.03 502.32) rotate(-43)"/>
  <rect class="cls" x="655.7" y="582.05" width="18.97" height="18.97" transform="translate(-189.03 713.24) rotate(-43)"/>
  <rect class="cls" x="553.85" y="324.89" width="18.97" height="18.97" transform="translate(-41 574.7) rotate(-43)"/>
  <rect class="cls" x="286.51" y="403.82" width="18.97" height="18.97" transform="translate(-166.66 413.57) rotate(-43)"/>
  <rect class="cls" x="91.73" y="338.89" width="18.97" height="18.97" transform="translate(-174.7 263.29) rotate(-43)"/>
  <rect class="cls" x="77.87" y="65.05" width="18.97" height="18.97" transform="translate(8.34 180.28) rotate(-43)"/>
  <rect class="cls" x="725.9" y="255.99" width="30.06" height="30.06" transform="translate(17.9 587.95) rotate(-36)"/>
  <rect class="cls" x="251.34" y="471.33" width="21.27" height="21.27" transform="translate(-216.23 390.77) rotate(-41)"/>
  <rect class="cls" x="75.62" y="227.04" width="29.28" height="29.28" transform="translate(-128.48 299.69) rotate(-60)"/>
  <rect class="cls" x="588.37" y="471.35" width="21.23" height="21.23" transform="translate(-132.08 638.66) rotate(-43)"/>
  <rect class="cls" x="79.37" y="525.35" width="21.23" height="21.23" transform="translate(-305.65 306.03) rotate(-43)"/>
  <rect class="cls" x="469.37" y="525.35" width="21.23" height="21.23" transform="translate(-200.88 572.01) rotate(-43)"/>
  <rect class="cls" x="641.21" y="321.72" width="25.97" height="25.97" transform="translate(-16.82 636.76) rotate(-43)"/>
  <rect class="cls" x="366.73" y="451.01" width="25.97" height="25.97" transform="translate(-164.51 412.48) rotate(-36)"/>
  <rect class="cls" x="716.82" y="667.28" width="14.9" height="14.9" transform="translate(-229.89 775.89) rotate(-43)"/>
  <rect class="cls" x="611.82" y="728.28" width="14.9" height="14.9" transform="translate(-299.7 720.67) rotate(-43)"/>
  <rect class="cls" x="547.82" y="591.28" width="14.9" height="14.9" transform="translate(-223.46 640.22) rotate(-43)"/>
  <rect class="cls" x="367.82" y="604.28" width="14.9" height="14.9" transform="translate(-280.68 520.95) rotate(-43)"/>
  <rect class="cls" x="184.82" y="602.28" width="14.9" height="14.9" transform="translate(-328.48 395.61) rotate(-43)"/>
  <rect class="cls" x="152.82" y="758.28" width="14.9" height="14.9" transform="translate(-443.47 415.69) rotate(-43)"/>
  <rect class="cls" x="682.97" y="537.16" width="23.62" height="23.62" transform="matrix(0.81, -0.59, 0.59, 0.81, -154.29, 613.9)"/>

</svg>
